# File exported by Houdini 15.5.607 (www.sidefx.com)
# 12 points
# 33 vertices
# 11 primitives
# Bounds: [-4.37779284, 1.81211078, -6.45262337] to [1.44430327, 5.11319828, 0.543216705]
g 
v -2.15394974 5.11319828 -2.43751144
v -2.15394974 3.8860364 -0.478262424
v -0.0389499664 4.31479454 -1.95387053
v -2.15394974 1.81211078 0.543216705
v -0.0389499664 2.37446308 -0.201842785
v 1.44430327 2.54155779 -1.96723747
v -0.846807837 5.00854063 -4.34145641
v 1.26819324 3.49696779 -4.06503677
v 0.0698933601 3.72182894 -6.02924204
v -3.46109152 5.00854063 -4.34145641
v -2.15394974 4.19071341 -6.45262337
v -4.37779284 3.72182894 -6.02924204
vn 0.176971093 0.959557056 0.218932882
vn 0.255734742 0.647889495 0.7175228
vn 0.500000179 0.771536171 0.393359661
vn 0.194738731 0.433388352 0.879915535
vn 0.404347211 0.541677356 0.736945629
vn 0.702046514 0.584168255 0.407281429
vn 0.369270623 0.920473337 -0.127937824
vn 0.654247761 0.756278574 -0.00162245322
vn 0.433888584 0.814448118 -0.385246724
vn -0.139107287 0.949381888 -0.28164351
vn -1.5467112e-08 0.862347782 -0.506316245
vn -0.268034518 0.830793977 -0.487789869
g 
f 3//3 1//1 2//2
f 5//5 2//2 4//4
f 6//6 3//3 5//5
f 3//3 2//2 5//5
f 7//7 1//1 3//3
f 8//8 3//3 6//6
f 9//9 7//7 8//8
f 7//7 3//3 8//8
f 10//10 1//1 7//7
f 11//11 7//7 9//9
f 12//12 10//10 11//11
